# xmcd
#
# Track frame offsets:
# 150
# 12607
# 28442
# 41368
# 57930
# 74970
# 91978
# 104937
# 121058
# 135349
# 147624
# 163308
# 179470
#
# Disc length: 2565 seconds
#
#
# Revision: 0
# Processed by: cddbd v1.5.1PL2 Copyright (c) Steve Scherf et al.
# Submitted via: FreeRIP 2.944 
#
DISCID=cd0a030d
DTITLE=Derailers - Jackpot
DYEAR=1996
DGENRE=Country
TTITLE0=My Heart's Ready
TTITLE1=Bar Exam
TTITLE2=I'm Your Man
TTITLE3=Where Ya Been
TTITLE4=Lies, Lies, Lies
TTITLE5=Vision To Dream On
TTITLE6=Jackpot
TTITLE7=Swan Song
TTITLE8=She Left Me Cold
TTITLE9=100% Pure Fool
TTITLE10=Tarnished Love
TTITLE11=Desperate Ways
TTITLE12=Just One More Time
EXTD=
EXTT0=
EXTT1=
EXTT2=
EXTT3=
EXTT4=
EXTT5=
EXTT6=
EXTT7=
EXTT8=
EXTT9=
EXTT10=
EXTT11=
EXTT12=
PLAYORDER=
